<svg id="visual" viewBox="0 0 600 900" width="600" height="900" xmlns="http://www.w3.org/2000/svg" xmlns:xlink="http://www.w3.org/1999/xlink" version="1.1"><path d="M515 900L520 887.5C525 875 535 850 540 825C545 800 545 775 544 750C543 725 541 700 539 675C537 650 535 625 542 600C549 575 565 550 570 525C575 500 569 475 564 450C559 425 555 400 559 375C563 350 575 325 574 300C573 275 559 250 556 225C553 200 561 175 559 150C557 125 545 100 543 75C541 50 549 25 553 12.5L557 0L600 0L600 12.5C600 25 600 50 600 75C600 100 600 125 600 150C600 175 600 200 600 225C600 250 600 275 600 300C600 325 600 350 600 375C600 400 600 425 600 450C600 475 600 500 600 525C600 550 600 575 600 600C600 625 600 650 600 675C600 700 600 725 600 750C600 775 600 800 600 825C600 850 600 875 600 887.5L600 900Z" fill="#6198ff"></path><path d="M479 900L479 887.5C479 875 479 850 471 825C463 800 447 775 447 750C447 725 463 700 465 675C467 650 455 625 461 600C467 575 491 550 491 525C491 500 467 475 456 450C445 425 447 400 465 375C483 350 517 325 513 300C509 275 467 250 448 225C429 200 433 175 443 150C453 125 469 100 480 75C491 50 497 25 500 12.5L503 0L558 0L554 12.5C550 25 542 50 544 75C546 100 558 125 560 150C562 175 554 200 557 225C560 250 574 275 575 300C576 325 564 350 560 375C556 400 560 425 565 450C570 475 576 500 571 525C566 550 550 575 543 600C536 625 538 650 540 675C542 700 544 725 545 750C546 775 546 800 541 825C536 850 526 875 521 887.5L516 900Z" fill="#4988ff"></path><path d="M461 900L452 887.5C443 875 425 850 414 825C403 800 399 775 406 750C413 725 431 700 433 675C435 650 421 625 424 600C427 575 447 550 442 525C437 500 407 475 395 450C383 425 389 400 416 375C443 350 491 325 493 300C495 275 451 250 428 225C405 200 403 175 405 150C407 125 413 100 423 75C433 50 447 25 454 12.5L461 0L504 0L501 12.5C498 25 492 50 481 75C470 100 454 125 444 150C434 175 430 200 449 225C468 250 510 275 514 300C518 325 484 350 466 375C448 400 446 425 457 450C468 475 492 500 492 525C492 550 468 575 462 600C456 625 468 650 466 675C464 700 448 725 448 750C448 775 464 800 472 825C480 850 480 875 480 887.5L480 900Z" fill="#2d77ff"></path><path d="M389 900L378 887.5C367 875 345 850 329 825C313 800 303 775 321 750C339 725 385 700 387 675C389 650 347 625 337 600C327 575 349 550 356 525C363 500 355 475 341 450C327 425 307 400 325 375C343 350 399 325 404 300C409 275 363 250 350 225C337 200 357 175 357 150C357 125 337 100 342 75C347 50 377 25 392 12.5L407 0L462 0L455 12.5C448 25 434 50 424 75C414 100 408 125 406 150C404 175 406 200 429 225C452 250 496 275 494 300C492 325 444 350 417 375C390 400 384 425 396 450C408 475 438 500 443 525C448 550 428 575 425 600C422 625 436 650 434 675C432 700 414 725 407 750C400 775 404 800 415 825C426 850 444 875 453 887.5L462 900Z" fill="#0066ff"></path><path d="M359 900L351 887.5C343 875 327 850 305 825C283 800 255 775 262 750C269 725 311 700 308 675C305 650 257 625 253 600C249 575 289 550 308 525C327 500 325 475 310 450C295 425 267 400 277 375C287 350 335 325 343 300C351 275 319 250 314 225C309 200 331 175 323 150C315 125 277 100 282 75C287 50 335 25 359 12.5L383 0L408 0L393 12.5C378 25 348 50 343 75C338 100 358 125 358 150C358 175 338 200 351 225C364 250 410 275 405 300C400 325 344 350 326 375C308 400 328 425 342 450C356 475 364 500 357 525C350 550 328 575 338 600C348 625 390 650 388 675C386 700 340 725 322 750C304 775 314 800 330 825C346 850 368 875 379 887.5L390 900Z" fill="#005de8"></path><path d="M293 900L282 887.5C271 875 249 850 206 825C163 800 99 775 94 750C89 725 143 700 159 675C175 650 153 625 153 600C153 575 175 550 169 525C163 500 129 475 122 450C115 425 135 400 131 375C127 350 99 325 105 300C111 275 151 250 171 225C191 200 191 175 192 150C193 125 195 100 183 75C171 50 145 25 132 12.5L119 0L384 0L360 12.5C336 25 288 50 283 75C278 100 316 125 324 150C332 175 310 200 315 225C320 250 352 275 344 300C336 325 288 350 278 375C268 400 296 425 311 450C326 475 328 500 309 525C290 550 250 575 254 600C258 625 306 650 309 675C312 700 270 725 263 750C256 775 284 800 306 825C328 850 344 875 352 887.5L360 900Z" fill="#0055d1"></path><path d="M0 900L0 887.5C0 875 0 850 0 825C0 800 0 775 0 750C0 725 0 700 0 675C0 650 0 625 0 600C0 575 0 550 0 525C0 500 0 475 0 450C0 425 0 400 0 375C0 350 0 325 0 300C0 275 0 250 0 225C0 200 0 175 0 150C0 125 0 100 0 75C0 50 0 25 0 12.5L0 0L120 0L133 12.5C146 25 172 50 184 75C196 100 194 125 193 150C192 175 192 200 172 225C152 250 112 275 106 300C100 325 128 350 132 375C136 400 116 425 123 450C130 475 164 500 170 525C176 550 154 575 154 600C154 625 176 650 160 675C144 700 90 725 95 750C100 775 164 800 207 825C250 850 272 875 283 887.5L294 900Z" fill="#004cbb"></path></svg>