<svg id="visual" viewBox="0 0 600 900" width="600" height="900" xmlns="http://www.w3.org/2000/svg" xmlns:xlink="http://www.w3.org/1999/xlink" version="1.1"><path d="M246 0L234.3 7.8C222.7 15.7 199.3 31.3 201.5 47.2C203.7 63 231.3 79 261.5 94.8C291.7 110.7 324.3 126.3 331.2 142C338 157.7 319 173.3 309.3 189.2C299.7 205 299.3 221 286.2 236.8C273 252.7 247 268.3 244 284.2C241 300 261 316 264.7 331.8C268.3 347.7 255.7 363.3 260.8 379C266 394.7 289 410.3 292 426.2C295 442 278 458 277 473.8C276 489.7 291 505.3 308 521C325 536.7 344 552.3 353.5 568.2C363 584 363 600 345.5 615.8C328 631.7 293 647.3 295.3 663.2C297.7 679 337.3 695 335.2 710.8C333 726.7 289 742.3 265.7 758C242.3 773.7 239.7 789.3 247.7 805.2C255.7 821 274.3 837 294.5 852.8C314.7 868.7 336.3 884.3 347.2 892.2L358 900L0 900L0 892.2C0 884.3 0 868.7 0 852.8C0 837 0 821 0 805.2C0 789.3 0 773.7 0 758C0 742.3 0 726.7 0 710.8C0 695 0 679 0 663.2C0 647.3 0 631.7 0 615.8C0 600 0 584 0 568.2C0 552.3 0 536.7 0 521C0 505.3 0 489.7 0 473.8C0 458 0 442 0 426.2C0 410.3 0 394.7 0 379C0 363.3 0 347.7 0 331.8C0 316 0 300 0 284.2C0 268.3 0 252.7 0 236.8C0 221 0 205 0 189.2C0 173.3 0 157.7 0 142C0 126.3 0 110.7 0 94.8C0 79 0 63 0 47.2C0 31.3 0 15.7 0 7.8L0 0Z" fill="#4385ff" stroke-linecap="round" stroke-linejoin="miter"></path></svg>