<svg id="visual" viewBox="0 0 600 900" width="600" height="900" xmlns="http://www.w3.org/2000/svg" xmlns:xlink="http://www.w3.org/1999/xlink" version="1.1"><path d="M241 0L243.7 7.2C246.3 14.3 251.7 28.7 261.7 43C271.7 57.3 286.3 71.7 292.2 86C298 100.3 295 114.7 290.3 128.8C285.7 143 279.3 157 279.3 171.2C279.3 185.3 285.7 199.7 284.2 214C282.7 228.3 273.3 242.7 264.5 257C255.7 271.3 247.3 285.7 240.5 300C233.7 314.3 228.3 328.7 238 343C247.7 357.3 272.3 371.7 283.5 386C294.7 400.3 292.3 414.7 292 428.8C291.7 443 293.3 457 292.8 471.2C292.3 485.3 289.7 499.7 279.8 514C270 528.3 253 542.7 246.5 557C240 571.3 244 585.7 257 600C270 614.3 292 628.7 299.7 643C307.3 657.3 300.7 671.7 300.2 686C299.7 700.3 305.3 714.7 296.7 728.8C288 743 265 757 260 771.2C255 785.3 268 799.7 274.7 814C281.3 828.3 281.7 842.7 285.7 857C289.7 871.3 297.3 885.7 301.2 892.8L305 900L0 900L0 892.8C0 885.7 0 871.3 0 857C0 842.7 0 828.3 0 814C0 799.7 0 785.3 0 771.2C0 757 0 743 0 728.8C0 714.7 0 700.3 0 686C0 671.7 0 657.3 0 643C0 628.7 0 614.3 0 600C0 585.7 0 571.3 0 557C0 542.7 0 528.3 0 514C0 499.7 0 485.3 0 471.2C0 457 0 443 0 428.8C0 414.7 0 400.3 0 386C0 371.7 0 357.3 0 343C0 328.7 0 314.3 0 300C0 285.7 0 271.3 0 257C0 242.7 0 228.3 0 214C0 199.7 0 185.3 0 171.2C0 157 0 143 0 128.8C0 114.7 0 100.3 0 86C0 71.7 0 57.3 0 43C0 28.7 0 14.3 0 7.2L0 0Z" fill="#2071ff" stroke-linecap="round" stroke-linejoin="miter"></path></svg>