<svg id="visual" viewBox="0 0 600 900" width="600" height="900" xmlns="http://www.w3.org/2000/svg" xmlns:xlink="http://www.w3.org/1999/xlink" version="1.1"><path d="M228 0L232.7 12.5C237.3 25 246.7 50 256.7 75C266.7 100 277.3 125 280.8 150C284.3 175 280.7 200 277 225C273.3 250 269.7 275 251.2 300C232.7 325 199.3 350 194.7 375C190 400 214 425 213.8 450C213.7 475 189.3 500 198.5 525C207.7 550 250.3 575 258.2 600C266 625 239 650 230.3 675C221.7 700 231.3 725 244.7 750C258 775 275 800 271 825C267 850 242 875 229.5 887.5L217 900L0 900L0 887.5C0 875 0 850 0 825C0 800 0 775 0 750C0 725 0 700 0 675C0 650 0 625 0 600C0 575 0 550 0 525C0 500 0 475 0 450C0 425 0 400 0 375C0 350 0 325 0 300C0 275 0 250 0 225C0 200 0 175 0 150C0 125 0 100 0 75C0 50 0 25 0 12.5L0 0Z" fill="#0056d6" stroke-linecap="round" stroke-linejoin="miter"></path></svg>