<svg id="visual" viewBox="0 0 600 900" width="600" height="900" xmlns="http://www.w3.org/2000/svg" xmlns:xlink="http://www.w3.org/1999/xlink" version="1.1"><path d="M387 0L386.2 7.8C385.3 15.7 383.7 31.3 376.2 47.2C368.7 63 355.3 79 322.3 94.8C289.3 110.7 236.7 126.3 248.5 142C260.3 157.7 336.7 173.3 339.2 189.2C341.7 205 270.3 221 267.5 236.8C264.7 252.7 330.3 268.3 365.2 284.2C400 300 404 316 396.5 331.8C389 347.7 370 363.3 371.8 379C373.7 394.7 396.3 410.3 397.2 426.2C398 442 377 458 362.2 473.8C347.3 489.7 338.7 505.3 312.5 521C286.3 536.7 242.7 552.3 237.8 568.2C233 584 267 600 297.7 615.8C328.3 631.7 355.7 647.3 368.8 663.2C382 679 381 695 350 710.8C319 726.7 258 742.3 244.8 758C231.7 773.7 266.3 789.3 269 805.2C271.7 821 242.3 837 237.2 852.8C232 868.7 251 884.3 260.5 892.2L270 900L0 900L0 892.2C0 884.3 0 868.7 0 852.8C0 837 0 821 0 805.2C0 789.3 0 773.7 0 758C0 742.3 0 726.7 0 710.8C0 695 0 679 0 663.2C0 647.3 0 631.7 0 615.8C0 600 0 584 0 568.2C0 552.3 0 536.7 0 521C0 505.3 0 489.7 0 473.8C0 458 0 442 0 426.2C0 410.3 0 394.7 0 379C0 363.3 0 347.7 0 331.8C0 316 0 300 0 284.2C0 268.3 0 252.7 0 236.8C0 221 0 205 0 189.2C0 173.3 0 157.7 0 142C0 126.3 0 110.7 0 94.8C0 79 0 63 0 47.2C0 31.3 0 15.7 0 7.8L0 0Z" fill="#6198ff" stroke-linecap="round" stroke-linejoin="miter"></path></svg>