<svg id="visual" viewBox="0 0 600 900" width="600" height="900" xmlns="http://www.w3.org/2000/svg" xmlns:xlink="http://www.w3.org/1999/xlink" version="1.1"><path d="M181 0L178.5 12.5C176 25 171 50 150.5 75C130 100 94 125 98.7 150C103.3 175 148.7 200 171.2 225C193.7 250 193.3 275 167.5 300C141.7 325 90.3 350 78.8 375C67.3 400 95.7 425 109.2 450C122.7 475 121.3 500 108 525C94.7 550 69.3 575 76 600C82.7 625 121.3 650 142 675C162.7 700 165.3 725 160.8 750C156.3 775 144.7 800 146.5 825C148.3 850 163.7 875 171.3 887.5L179 900L0 900L0 887.5C0 875 0 850 0 825C0 800 0 775 0 750C0 725 0 700 0 675C0 650 0 625 0 600C0 575 0 550 0 525C0 500 0 475 0 450C0 425 0 400 0 375C0 350 0 325 0 300C0 275 0 250 0 225C0 200 0 175 0 150C0 125 0 100 0 75C0 50 0 25 0 12.5L0 0Z" fill="#004cbb" stroke-linecap="round" stroke-linejoin="miter"></path></svg>