<svg id="visual" viewBox="0 0 960 540" width="960" height="540" xmlns="http://www.w3.org/2000/svg" xmlns:xlink="http://www.w3.org/1999/xlink" version="1.1"><path d="M0 434L16 422.5C32 411 64 388 96 379.7C128 371.3 160 377.7 192 387.3C224 397 256 410 288 411.7C320 413.3 352 403.7 384 398.3C416 393 448 392 480 392.5C512 393 544 395 576 394.7C608 394.3 640 391.7 672 395.7C704 399.7 736 410.3 768 417C800 423.7 832 426.3 864 420.2C896 414 928 399 944 391.5L960 384L960 541L944 541C928 541 896 541 864 541C832 541 800 541 768 541C736 541 704 541 672 541C640 541 608 541 576 541C544 541 512 541 480 541C448 541 416 541 384 541C352 541 320 541 288 541C256 541 224 541 192 541C160 541 128 541 96 541C64 541 32 541 16 541L0 541Z" fill="#d4d4dc"></path><path d="M0 432L16 425.7C32 419.3 64 406.7 96 402.3C128 398 160 402 192 408.5C224 415 256 424 288 429.8C320 435.7 352 438.3 384 439C416 439.7 448 438.3 480 436.8C512 435.3 544 433.7 576 427.2C608 420.7 640 409.3 672 405.3C704 401.3 736 404.7 768 405.3C800 406 832 404 864 410.8C896 417.7 928 433.3 944 441.2L960 449L960 541L944 541C928 541 896 541 864 541C832 541 800 541 768 541C736 541 704 541 672 541C640 541 608 541 576 541C544 541 512 541 480 541C448 541 416 541 384 541C352 541 320 541 288 541C256 541 224 541 192 541C160 541 128 541 96 541C64 541 32 541 16 541L0 541Z" fill="#c6c3cc"></path><path d="M0 425L16 431C32 437 64 449 96 452.8C128 456.7 160 452.3 192 451.5C224 450.7 256 453.3 288 450C320 446.7 352 437.3 384 438.2C416 439 448 450 480 451C512 452 544 443 576 443.7C608 444.3 640 454.7 672 462.3C704 470 736 475 768 468.7C800 462.3 832 444.7 864 438.2C896 431.7 928 436.3 944 438.7L960 441L960 541L944 541C928 541 896 541 864 541C832 541 800 541 768 541C736 541 704 541 672 541C640 541 608 541 576 541C544 541 512 541 480 541C448 541 416 541 384 541C352 541 320 541 288 541C256 541 224 541 192 541C160 541 128 541 96 541C64 541 32 541 16 541L0 541Z" fill="#b8b3bb"></path><path d="M0 474L16 474.7C32 475.3 64 476.7 96 481.2C128 485.7 160 493.3 192 496.3C224 499.3 256 497.7 288 493.8C320 490 352 484 384 481.8C416 479.7 448 481.3 480 483.5C512 485.7 544 488.3 576 486.2C608 484 640 477 672 474.2C704 471.3 736 472.7 768 470.8C800 469 832 464 864 468C896 472 928 485 944 491.5L960 498L960 541L944 541C928 541 896 541 864 541C832 541 800 541 768 541C736 541 704 541 672 541C640 541 608 541 576 541C544 541 512 541 480 541C448 541 416 541 384 541C352 541 320 541 288 541C256 541 224 541 192 541C160 541 128 541 96 541C64 541 32 541 16 541L0 541Z" fill="#aaa3aa"></path><path d="M0 492L16 493.3C32 494.7 64 497.3 96 501.2C128 505 160 510 192 511.7C224 513.3 256 511.7 288 509.5C320 507.3 352 504.7 384 504.7C416 504.7 448 507.3 480 510C512 512.7 544 515.3 576 516.7C608 518 640 518 672 517.3C704 516.7 736 515.3 768 511.5C800 507.7 832 501.3 864 498C896 494.7 928 494.3 944 494.2L960 494L960 541L944 541C928 541 896 541 864 541C832 541 800 541 768 541C736 541 704 541 672 541C640 541 608 541 576 541C544 541 512 541 480 541C448 541 416 541 384 541C352 541 320 541 288 541C256 541 224 541 192 541C160 541 128 541 96 541C64 541 32 541 16 541L0 541Z" fill="#9c949a"></path></svg>