<svg id="visual" viewBox="0 0 440 960" width="440" height="960" xmlns="http://www.w3.org/2000/svg" xmlns:xlink="http://www.w3.org/1999/xlink" version="1.1"><path d="M315 960L345 896L391 832L402 768L318 704L309 640L307 576L342 512L345 448L384 384L401 320L384 256L306 192L375 128L299 64L415 0L540 0L540 64L540 128L540 192L540 256L540 320L540 384L540 448L540 512L540 576L540 640L540 704L540 768L540 832L540 896L540 960Z" fill="#f5730a"></path><path d="M348 960L417 896L396 832L396 768L405 704L417 640L436 576L428 512L439 448L391 384L381 320L442 256L385 192L426 128L347 64L410 0L540 0L540 64L540 128L540 192L540 256L540 320L540 384L540 448L540 512L540 576L540 640L540 704L540 768L540 832L540 896L540 960Z" fill="#da5b09"></path><path d="M458 960L455 896L426 832L468 768L432 704L400 640L444 576L430 512L384 448L446 384L405 320L393 256L443 192L466 128L395 64L449 0L540 0L540 64L540 128L540 192L540 256L540 320L540 384L540 448L540 512L540 576L540 640L540 704L540 768L540 832L540 896L540 960Z" fill="#be4407"></path><path d="M442 960L439 896L484 832L455 768L462 704L469 640L424 576L454 512L467 448L500 384L424 320L457 256L466 192L443 128L444 64L463 0L540 0L540 64L540 128L540 192L540 256L540 320L540 384L540 448L540 512L540 576L540 640L540 704L540 768L540 832L540 896L540 960Z" fill="#a32d04"></path><path d="M516 960L479 896L465 832L518 768L504 704L502 640L514 576L514 512L475 448L477 384L520 320L490 256L520 192L521 128L525 64L480 0L540 0L540 64L540 128L540 192L540 256L540 320L540 384L540 448L540 512L540 576L540 640L540 704L540 768L540 832L540 896L540 960Z" fill="#871400"></path></svg>