<svg id="visual" viewBox="0 0 960 540" width="960" height="540" xmlns="http://www.w3.org/2000/svg" xmlns:xlink="http://www.w3.org/1999/xlink" version="1.1"><path d="M0 385L137 390L274 369L411 385L549 396L686 385L823 346L960 352L960 541L823 541L686 541L549 541L411 541L274 541L137 541L0 541Z" fill="#0066ff"></path><path d="M0 413L137 396L274 420L411 382L549 430L686 357L823 403L960 396L960 541L823 541L686 541L549 541L411 541L274 541L137 541L0 541Z" fill="#0080ef"></path><path d="M0 421L137 427L274 418L411 409L549 423L686 450L823 399L960 438L960 541L823 541L686 541L549 541L411 541L274 541L137 541L0 541Z" fill="#0090d1"></path><path d="M0 458L137 448L274 448L411 470L549 453L686 485L823 474L960 434L960 541L823 541L686 541L549 541L411 541L274 541L137 541L0 541Z" fill="#0097ad"></path><path d="M0 497L137 476L274 506L411 508L549 481L686 477L823 509L960 488L960 541L823 541L686 541L549 541L411 541L274 541L137 541L0 541Z" fill="#009473"></path></svg>