<svg id="visual" viewBox="0 0 960 540" width="960" height="540" xmlns="http://www.w3.org/2000/svg" xmlns:xlink="http://www.w3.org/1999/xlink" version="1.1"><path d="M0 126L16 122.8C32 119.7 64 113.3 96 110.8C128 108.3 160 109.7 192 103.5C224 97.3 256 83.7 288 86.3C320 89 352 108 384 108.8C416 109.7 448 92.3 480 84.2C512 76 544 77 576 79C608 81 640 84 672 92C704 100 736 113 768 111.2C800 109.3 832 92.7 864 85.3C896 78 928 80 944 81L960 82L960 0L944 0C928 0 896 0 864 0C832 0 800 0 768 0C736 0 704 0 672 0C640 0 608 0 576 0C544 0 512 0 480 0C448 0 416 0 384 0C352 0 320 0 288 0C256 0 224 0 192 0C160 0 128 0 96 0C64 0 32 0 16 0L0 0Z" fill="#d4d4dc"></path><path d="M0 54L16 55.5C32 57 64 60 96 64.2C128 68.3 160 73.7 192 79C224 84.3 256 89.7 288 85.7C320 81.7 352 68.3 384 62.5C416 56.7 448 58.3 480 59.2C512 60 544 60 576 60.5C608 61 640 62 672 65.8C704 69.7 736 76.3 768 78.2C800 80 832 77 864 75.5C896 74 928 74 944 74L960 74L960 0L944 0C928 0 896 0 864 0C832 0 800 0 768 0C736 0 704 0 672 0C640 0 608 0 576 0C544 0 512 0 480 0C448 0 416 0 384 0C352 0 320 0 288 0C256 0 224 0 192 0C160 0 128 0 96 0C64 0 32 0 16 0L0 0Z" fill="#c1bec6"></path><path d="M0 43L16 42.3C32 41.7 64 40.3 96 40C128 39.7 160 40.3 192 43.3C224 46.3 256 51.7 288 52.5C320 53.3 352 49.7 384 49.8C416 50 448 54 480 56.5C512 59 544 60 576 57C608 54 640 47 672 47.7C704 48.3 736 56.7 768 58.8C800 61 832 57 864 56.2C896 55.3 928 57.7 944 58.8L960 60L960 0L944 0C928 0 896 0 864 0C832 0 800 0 768 0C736 0 704 0 672 0C640 0 608 0 576 0C544 0 512 0 480 0C448 0 416 0 384 0C352 0 320 0 288 0C256 0 224 0 192 0C160 0 128 0 96 0C64 0 32 0 16 0L0 0Z" fill="#afa9b0"></path><path d="M0 22L16 25.2C32 28.3 64 34.7 96 35.3C128 36 160 31 192 28.3C224 25.7 256 25.3 288 24.3C320 23.3 352 21.7 384 23.3C416 25 448 30 480 29.3C512 28.7 544 22.3 576 21.8C608 21.3 640 26.7 672 30.8C704 35 736 38 768 36.7C800 35.3 832 29.7 864 29C896 28.3 928 32.7 944 34.8L960 37L960 0L944 0C928 0 896 0 864 0C832 0 800 0 768 0C736 0 704 0 672 0C640 0 608 0 576 0C544 0 512 0 480 0C448 0 416 0 384 0C352 0 320 0 288 0C256 0 224 0 192 0C160 0 128 0 96 0C64 0 32 0 16 0L0 0Z" fill="#9c949a"></path></svg>