<svg id="visual" viewBox="0 0 540 960" width="540" height="960" xmlns="http://www.w3.org/2000/svg" xmlns:xlink="http://www.w3.org/1999/xlink" version="1.1"><path d="M111 0L138 96L100 192L152 288L101 384L131 480L101 576L133 672L109 768L163 864L140 960L0 960L0 864L0 768L0 672L0 576L0 480L0 384L0 288L0 192L0 96L0 0Z" fill="#f5730a"></path><path d="M111 0L107 96L154 192L124 288L145 384L115 480L100 576L111 672L135 768L123 864L150 960L0 960L0 864L0 768L0 672L0 576L0 480L0 384L0 288L0 192L0 96L0 0Z" fill="#df6009"></path><path d="M119 0L108 96L129 192L78 288L66 384L126 480L93 576L122 672L119 768L132 864L98 960L0 960L0 864L0 768L0 672L0 576L0 480L0 384L0 288L0 192L0 96L0 0Z" fill="#c94d08"></path><path d="M63 0L94 96L81 192L70 288L78 384L86 480L82 576L55 672L58 768L93 864L102 960L0 960L0 864L0 768L0 672L0 576L0 480L0 384L0 288L0 192L0 96L0 0Z" fill="#b33b06"></path><path d="M49 0L40 96L65 192L75 288L43 384L43 480L64 576L58 672L69 768L35 864L60 960L0 960L0 864L0 768L0 672L0 576L0 480L0 384L0 288L0 192L0 96L0 0Z" fill="#9d2804"></path><path d="M46 0L29 96L32 192L23 288L45 384L24 480L16 576L14 672L50 768L41 864L20 960L0 960L0 864L0 768L0 672L0 576L0 480L0 384L0 288L0 192L0 96L0 0Z" fill="#871400"></path></svg>