<svg id="visual" viewBox="0 0 960 540" width="960" height="540" xmlns="http://www.w3.org/2000/svg" xmlns:xlink="http://www.w3.org/1999/xlink" version="1.1"><path d="M0 27L46 18L91 24L137 41L183 13L229 5L274 7L320 39L366 38L411 37L457 16L503 12L549 36L594 32L640 46L686 19L731 33L777 43L823 21L869 19L914 32L960 18L960 0L914 0L869 0L823 0L777 0L731 0L686 0L640 0L594 0L549 0L503 0L457 0L411 0L366 0L320 0L274 0L229 0L183 0L137 0L91 0L46 0L0 0Z" fill="#0066ff"></path><path d="M0 32L46 13L91 6L137 18L183 21L229 29L274 14L320 29L366 11L411 34L457 21L503 13L549 10L594 19L640 31L686 44L731 21L777 17L823 30L869 8L914 13L960 37L960 0L914 0L869 0L823 0L777 0L731 0L686 0L640 0L594 0L549 0L503 0L457 0L411 0L366 0L320 0L274 0L229 0L183 0L137 0L91 0L46 0L0 0Z" fill="#0071fb"></path><path d="M0 31L46 19L91 28L137 30L183 7L229 19L274 28L320 20L366 19L411 25L457 4L503 9L549 28L594 25L640 31L686 28L731 24L777 7L823 36L869 35L914 7L960 34L960 0L914 0L869 0L823 0L777 0L731 0L686 0L640 0L594 0L549 0L503 0L457 0L411 0L366 0L320 0L274 0L229 0L183 0L137 0L91 0L46 0L0 0Z" fill="#007af5"></path><path d="M0 31L46 17L91 9L137 20L183 20L229 23L274 7L320 36L366 30L411 9L457 16L503 29L549 15L594 6L640 14L686 25L731 3L777 4L823 15L869 24L914 20L960 19L960 0L914 0L869 0L823 0L777 0L731 0L686 0L640 0L594 0L549 0L503 0L457 0L411 0L366 0L320 0L274 0L229 0L183 0L137 0L91 0L46 0L0 0Z" fill="#0082ec"></path><path d="M0 7L46 10L91 31L137 18L183 22L229 26L274 17L320 14L366 11L411 22L457 25L503 28L549 15L594 18L640 27L686 7L731 27L777 26L823 16L869 23L914 12L960 30L960 0L914 0L869 0L823 0L777 0L731 0L686 0L640 0L594 0L549 0L503 0L457 0L411 0L366 0L320 0L274 0L229 0L183 0L137 0L91 0L46 0L0 0Z" fill="#0088e2"></path><path d="M0 13L46 17L91 24L137 27L183 26L229 10L274 9L320 27L366 6L411 4L457 13L503 18L549 6L594 16L640 4L686 18L731 5L777 13L823 13L869 12L914 27L960 28L960 0L914 0L869 0L823 0L777 0L731 0L686 0L640 0L594 0L549 0L503 0L457 0L411 0L366 0L320 0L274 0L229 0L183 0L137 0L91 0L46 0L0 0Z" fill="#008ed7"></path><path d="M0 19L46 14L91 12L137 11L183 25L229 14L274 4L320 17L366 3L411 20L457 5L503 5L549 24L594 13L640 24L686 21L731 15L777 16L823 22L869 13L914 16L960 24L960 0L914 0L869 0L823 0L777 0L731 0L686 0L640 0L594 0L549 0L503 0L457 0L411 0L366 0L320 0L274 0L229 0L183 0L137 0L91 0L46 0L0 0Z" fill="#0092cd"></path><path d="M0 6L46 21L91 21L137 21L183 18L229 8L274 17L320 9L366 19L411 10L457 20L503 7L549 7L594 12L640 8L686 12L731 18L777 15L823 17L869 5L914 2L960 19L960 0L914 0L869 0L823 0L777 0L731 0L686 0L640 0L594 0L549 0L503 0L457 0L411 0L366 0L320 0L274 0L229 0L183 0L137 0L91 0L46 0L0 0Z" fill="#0095c2"></path><path d="M0 3L46 7L91 3L137 15L183 2L229 10L274 9L320 5L366 2L411 2L457 11L503 13L549 17L594 9L640 16L686 16L731 18L777 5L823 10L869 6L914 2L960 9L960 0L914 0L869 0L823 0L777 0L731 0L686 0L640 0L594 0L549 0L503 0L457 0L411 0L366 0L320 0L274 0L229 0L183 0L137 0L91 0L46 0L0 0Z" fill="#0097b2"></path><path d="M0 9L46 9L91 1L137 12L183 3L229 13L274 14L320 7L366 12L411 8L457 13L503 9L549 1L594 9L640 7L686 12L731 5L777 13L823 10L869 5L914 5L960 13L960 0L914 0L869 0L823 0L777 0L731 0L686 0L640 0L594 0L549 0L503 0L457 0L411 0L366 0L320 0L274 0L229 0L183 0L137 0L91 0L46 0L0 0Z" fill="#00979e"></path><path d="M0 3L46 6L91 7L137 10L183 4L229 1L274 10L320 3L366 6L411 5L457 8L503 8L549 3L594 1L640 6L686 5L731 1L777 4L823 9L869 5L914 2L960 9L960 0L914 0L869 0L823 0L777 0L731 0L686 0L640 0L594 0L549 0L503 0L457 0L411 0L366 0L320 0L274 0L229 0L183 0L137 0L91 0L46 0L0 0Z" fill="#009689"></path><path d="M0 5L46 5L91 5L137 6L183 5L229 4L274 6L320 3L366 4L411 4L457 6L503 3L549 2L594 3L640 0L686 2L731 0L777 6L823 5L869 5L914 5L960 3L960 0L914 0L869 0L823 0L777 0L731 0L686 0L640 0L594 0L549 0L503 0L457 0L411 0L366 0L320 0L274 0L229 0L183 0L137 0L91 0L46 0L0 0Z" fill="#009473"></path></svg>